<?xml version="1.0" encoding="UTF-8" standalone="no"?><svg width="121" height="35" viewBox="0 0 121 35" fill="#fff" xmlns="http://www.w3.org/2000/svg">
<path d="M0.560059 34.1787L4.06258 28.3411H28.0799V21.2944L33.9174 20.0018V33.2196C33.9174 33.5532 33.7785 33.7895 33.5005 33.9285C33.2225 34.0675 32.9445 34.1509 32.6665 34.1787C32.3886 34.1787 32.2496 34.1787 32.2496 34.1787H0.560059Z" fill="#fff"/>
<path d="M55.6105 18.727C54.9433 18.727 54.3735 18.4908 53.9009 18.0182C53.4284 17.5456 53.1921 16.9758 53.1921 16.3086C53.1921 15.6415 53.4284 15.0716 53.9009 14.5991C54.3735 14.1265 54.9433 13.8902 55.6105 13.8902C56.2776 13.8902 56.8475 14.1265 57.32 14.5991C57.7926 15.0716 58.0289 15.6415 58.0289 16.3086C58.0289 16.9758 57.7926 17.5456 57.32 18.0182C56.8475 18.4908 56.2776 18.727 55.6105 18.727ZM48.3969 18.727C47.7298 18.727 47.1599 18.4908 46.6874 18.0182C46.2148 17.5456 45.9785 16.9758 45.9785 16.3086C45.9785 15.6415 46.2148 15.0716 46.6874 14.5991C47.1599 14.1265 47.7298 13.8902 48.3969 13.8902C49.0641 13.8902 49.6339 14.1265 50.1065 14.5991C50.5791 15.0716 50.8154 15.6415 50.8154 16.3086C50.8154 16.9758 50.5791 17.5456 50.1065 18.0182C49.6339 18.4908 49.0641 18.727 48.3969 18.727Z" fill="#fff"/>
<path d="M35.986 34.1787L39.4885 28.3411H64.3398C64.3676 27.5906 64.1313 26.9929 63.6309 26.5482C63.1583 26.0756 62.1437 25.8393 60.5871 25.8393H40.5726L47.0773 14.9982L47.4943 15.29L45.3261 20.0018H60.5871C62.5329 20.0018 64.1174 20.2659 65.3405 20.794C66.5636 21.3222 67.5087 22.031 68.1759 22.9205C68.843 23.7823 69.3156 24.7552 69.5935 25.8393C69.8993 26.8956 70.0661 27.9936 70.0939 29.1334C70.1495 30.2453 70.1773 31.3016 70.1773 32.3023C70.1773 32.4691 70.1773 32.6359 70.1773 32.8027C70.1773 32.9417 70.1773 33.0806 70.1773 33.2196C70.1773 33.5532 70.0383 33.7895 69.7603 33.9285C69.4824 34.0675 69.2044 34.1509 68.9264 34.1787C68.6484 34.1787 68.5094 34.1787 68.5094 34.1787H35.986Z" fill="#fff"/>
<path d="M73.9349 34.1787C73.9349 34.1787 73.7959 34.1787 73.5179 34.1787C73.2399 34.1509 72.962 34.0675 72.684 33.9285C72.406 33.7895 72.267 33.5532 72.267 33.2196V2.11389L78.1046 0.821289V28.3411H81.4403V34.1787H73.9349Z" fill="#fff"/>
<path d="M79.7561 34.1787V28.3411H83.0085L78.8805 23.8796L86.968 20.0018L92.4319 17.5V28.3411H96.8101V34.1787H79.7561Z" fill="#fff"/>
<path d="M95.1481 34.1787V28.3411H98.4838V21.2944L104.321 20.0018V28.3411H106.823V21.2944L112.661 20.0018V28.3411H115.163V21.2944L121 20.0018V33.2196C121 33.5532 120.861 33.7895 120.583 33.9285C120.305 34.0675 120.027 34.1509 119.749 34.1787C119.471 34.1787 119.332 34.1787 119.332 34.1787H95.1481Z" fill="#fff"/>
</svg>
