<?xml version="1.0" encoding="UTF-8" standalone="no"?><svg width="25" height="25" viewBox="0 0 25 25" fill="none" xmlns="http://www.w3.org/2000/svg">
<path d="M12.9199 4.61745V21.4906M12.9199 4.61745L14.0201 4.20461C16.5235 3.26513 19.3163 3.26513 21.8198 4.20461C22.4842 4.45395 22.9199 5.05769 22.9199 5.72907V19.5797C22.9199 20.5016 21.9275 21.132 21.0151 20.7896C19.0282 20.044 16.8117 20.044 14.8248 20.7896L12.9336 21.4993C12.9271 21.5018 12.9199 21.4972 12.9199 21.4906M12.9199 4.61745L11.8198 4.20461C9.3163 3.26513 6.52354 3.26513 4.02006 4.20461C3.35562 4.45395 2.91992 5.05769 2.91992 5.72907V19.5797C2.91992 20.5016 3.91239 21.132 4.82477 20.7896C6.81168 20.044 9.02817 20.044 11.0151 20.7896L12.9062 21.4993C12.9128 21.5018 12.9199 21.4972 12.9199 21.4906" stroke="#464646" stroke-width="1.5"/>
</svg>
