<?xml version="1.0" encoding="UTF-8" standalone="no"?><svg width="25" height="25" viewBox="0 0 25 25" fill="none" xmlns="http://www.w3.org/2000/svg">
<path d="M3.41992 11.4384C3.41992 10.2142 3.9805 9.05744 4.94134 8.29888L10.4413 3.95677C11.8946 2.80948 13.9453 2.80948 15.3985 3.95677L20.8985 8.29888C21.8593 9.05744 22.4199 10.2142 22.4199 11.4384V18C22.4199 20.2091 20.6291 22 18.4199 22H16.9199C16.3676 22 15.9199 21.5523 15.9199 21V18C15.9199 16.8954 15.0245 16 13.9199 16H11.9199C10.8154 16 9.91992 16.8954 9.91992 18V21C9.91992 21.5523 9.47221 22 8.91992 22H7.41992C5.21078 22 3.41992 20.2091 3.41992 18L3.41992 11.4384Z" stroke="#464646" stroke-width="1.5"/>
</svg>
