<?xml version="1.0" encoding="UTF-8" standalone="no"?><svg width="25" height="25" viewBox="0 0 25 25" fill="none" xmlns="http://www.w3.org/2000/svg">
<circle cx="3.40426" cy="3.40426" r="3.40426" transform="matrix(-1 0 0 1 16.5371 5.5)" stroke="#464646" stroke-width="1.5"/>
<path d="M7.17529 17.3594C7.17529 16.6272 7.63559 15.974 8.32516 15.7277V15.7277C11.4341 14.6174 14.8314 14.6174 17.9403 15.7277V15.7277C18.6299 15.974 19.0902 16.6272 19.0902 17.3594V18.479C19.0902 19.4896 18.1951 20.2659 17.1947 20.1229L16.8611 20.0753C14.3881 19.722 11.8774 19.722 9.40434 20.0753L9.07079 20.1229C8.07036 20.2659 7.17529 19.4896 7.17529 18.479V17.3594Z" stroke="#464646" stroke-width="1.5"/>
<path d="M18.239 12.4028C19.7163 12.4028 20.9138 11.2052 20.9138 9.72799C20.9138 8.25076 19.7163 7.05322 18.239 7.05322" stroke="#464646" stroke-width="1.5" stroke-linecap="round"/>
<path d="M21.1685 18.5051L21.4306 18.5425C22.2166 18.6548 22.9199 18.0448 22.9199 17.2508V16.3711C22.9199 15.7958 22.5582 15.2826 22.0164 15.0891C21.476 14.8961 20.9244 14.7458 20.3667 14.6382" stroke="#464646" stroke-width="1.5" stroke-linecap="round"/>
<path d="M7.6008 12.4028C6.12356 12.4028 4.92603 11.2052 4.92603 9.72799C4.92603 8.25076 6.12356 7.05322 7.6008 7.05322" stroke="#464646" stroke-width="1.5" stroke-linecap="round"/>
<path d="M4.67135 18.5051L4.40927 18.5425C3.62322 18.6548 2.91995 18.0448 2.91995 17.2508V16.3711C2.91995 15.7958 3.28162 15.2826 3.82342 15.0891C4.36387 14.8961 4.91541 14.7458 5.47314 14.6382" stroke="#464646" stroke-width="1.5" stroke-linecap="round"/>
</svg>
